<svg width="28" height="22" viewBox="0 0 28 22" fill="none" xmlns="http://www.w3.org/2000/svg">
<path d="M28.001 3.00003V5.00003C28.001 14.627 22.628 19 16.001 19H14.099C14.311 15.988 15.249 14.165 17.697 11.999C18.901 10.934 18.799 10.319 18.206 10.672C14.122 13.102 12.093 16.386 12.003 21.63L12 22H10C10 20.637 10.116 19.4 10.346 18.268C10.116 16.974 10 15.218 10 13C10 7.47703 14.477 3.00003 20 3.00003C22 3.00003 24.001 4.00003 28.001 3.00003Z" fill="#00714F"/>
<path d="M4.61176 0.332209C6.37252 5.06588 11.5969 5.67027 13.4 9.08728C14.757 11.659 13.3049 14.694 12.2242 16.4063C12.2242 16.4063 13.5823 17.9354 15.5286 19.2036C16.1818 19.6285 15.1713 20.81 14.6143 20.4731C7.56316 16.2059 5.54681 5.56203 5.54681 5.56203C5.54681 5.56203 4.00701 12.5498 9.32547 18.3393C7.89891 18.2177 4.06271 17.7566 2.37515 13.7019C0.0839509 8.20456 4.20141 -0.772835 4.61176 0.332209Z" fill="#00714F"/>
</svg>
