<svg width="135" height="25" viewBox="0 0 135 25" fill="none" xmlns="http://www.w3.org/2000/svg">
<path d="M28.001 4.00003V6.00003C28.001 15.627 22.628 20 16.001 20H14.099C14.311 16.988 15.249 15.165 17.697 12.999C18.901 11.934 18.799 11.319 18.206 11.672C14.122 14.102 12.093 17.386 12.003 22.63L12 23H10C10 21.637 10.116 20.4 10.346 19.268C10.116 17.974 10 16.218 10 14C10 8.47703 14.477 4.00003 20 4.00003C22 4.00003 24.001 5.00003 28.001 4.00003Z" fill="#00714F"/>
<path d="M4.61176 1.33221C6.37252 6.06588 11.5969 6.67027 13.4 10.0873C14.757 12.659 13.3049 15.694 12.2242 17.4063C12.2242 17.4063 13.5823 18.9354 15.5286 20.2036C16.1818 20.6285 15.1713 21.81 14.6143 21.4731C7.56316 17.2059 5.54681 6.56203 5.54681 6.56203C5.54681 6.56203 4.00701 13.5498 9.32547 19.3393C7.89891 19.2177 4.06271 18.7566 2.37515 14.7019C0.0839509 9.20456 4.20141 0.227165 4.61176 1.33221Z" fill="#00714F"/>
<path d="M44.288 16H40.672C40.544 16 40.48 15.936 40.48 15.808V14.992C40.48 14.864 40.544 14.8 40.672 14.8H41.792L40.752 12.032H36.288L35.248 14.8H36.368C36.496 14.8 36.56 14.864 36.56 14.992V15.808C36.56 15.936 36.496 16 36.368 16H32.768C32.64 16 32.576 15.936 32.576 15.808V14.992C32.576 14.864 32.64 14.8 32.768 14.8H33.84L37.28 5.712H36.416C36.2773 5.712 36.208 5.648 36.208 5.52V4.704C36.208 4.576 36.2773 4.512 36.416 4.512H38.592C38.848 4.512 39.04 4.56533 39.168 4.672C39.3067 4.77867 39.424 4.95467 39.52 5.2L43.2 14.8H44.288C44.416 14.8 44.48 14.864 44.48 14.992V15.808C44.48 15.936 44.416 16 44.288 16ZM40.32 10.928L38.544 6.176H38.496L36.704 10.928H40.32ZM54.9463 16H54.0983C53.9596 16 53.8903 15.936 53.8903 15.808L53.9062 14.704C52.9676 15.6427 51.7143 16.112 50.1463 16.112C48.5889 16.112 47.2876 15.568 46.2423 14.48C45.1969 13.392 44.6743 11.9627 44.6743 10.192C44.6743 9.008 44.9356 7.968 45.4583 7.072C45.9916 6.176 46.6636 5.50933 47.4743 5.072C48.2956 4.63467 49.1809 4.416 50.1303 4.416C51.7623 4.416 52.9356 4.92267 53.6503 5.936L53.6343 4.704C53.6129 4.576 53.6769 4.512 53.8263 4.512H54.7223C54.8609 4.512 54.9303 4.576 54.9303 4.704V8C54.9303 8.128 54.8609 8.192 54.7223 8.192H53.7143C53.5863 8.192 53.5223 8.128 53.5223 8V7.808C53.5223 7.33867 53.1969 6.87467 52.5463 6.416C51.9063 5.95733 51.0849 5.728 50.0823 5.728C49.0796 5.728 48.1729 6.144 47.3623 6.976C46.5623 7.79733 46.1623 8.90133 46.1623 10.288C46.1623 11.664 46.5676 12.7573 47.3783 13.568C48.1889 14.368 49.0956 14.768 50.0983 14.768C51.1009 14.768 51.8903 14.608 52.4663 14.288C53.0529 13.968 53.4903 13.5893 53.7783 13.152V11.904H50.8023C50.6743 11.904 50.6103 11.8347 50.6103 11.696V10.96C50.6103 10.832 50.6743 10.768 50.8023 10.768H54.9463C55.0743 10.768 55.1383 10.832 55.1383 10.96V15.808C55.1383 15.936 55.0743 16 54.9463 16ZM66.4488 16H65.0568C64.6728 16 64.3528 15.744 64.0968 15.232L62.5928 12.176C62.4648 11.9093 62.3261 11.712 62.1768 11.584C62.0381 11.456 61.8408 11.3867 61.5848 11.376H59.5528V14.8H60.9928C61.1208 14.8 61.1848 14.864 61.1848 14.992V15.808C61.1848 15.936 61.1208 16 60.9928 16H56.9448C56.8061 16 56.7368 15.936 56.7368 15.808V14.992C56.7368 14.864 56.8061 14.8 56.9448 14.8H58.1608V5.712H56.9448C56.8061 5.712 56.7368 5.648 56.7368 5.52V4.704C56.7368 4.576 56.8061 4.512 56.9448 4.512H61.8728C63.0141 4.512 63.9421 4.816 64.6568 5.424C65.3714 6.02133 65.7288 6.86933 65.7288 7.968C65.7288 9.64267 64.9448 10.688 63.3768 11.104C63.5794 11.264 63.8301 11.6213 64.1288 12.176L65.4728 14.8H66.4488C66.5768 14.8 66.6408 14.864 66.6408 14.992V15.808C66.6408 15.936 66.5768 16 66.4488 16ZM59.5528 10.24H61.6008C63.4141 10.24 64.3208 9.49867 64.3208 8.016C64.3208 6.48 63.4141 5.712 61.6008 5.712H59.5528V10.24ZM71.9723 16H68.1323C67.9936 16 67.9243 15.936 67.9243 15.808V14.992C67.9243 14.864 67.9936 14.8 68.1323 14.8H69.3483V5.712H68.1323C67.9936 5.712 67.9243 5.648 67.9243 5.52V4.704C67.9243 4.576 67.9936 4.512 68.1323 4.512H71.9723C72.1109 4.512 72.1803 4.576 72.1803 4.704V5.52C72.1803 5.648 72.1109 5.712 71.9723 5.712H70.7403V14.8H71.9723C72.1109 14.8 72.1803 14.864 72.1803 14.992V15.808C72.1803 15.936 72.1109 16 71.9723 16ZM83.5739 13.104C83.6272 13.1467 83.6539 13.2 83.6539 13.264C83.6539 13.3173 83.6272 13.3973 83.5739 13.504C83.5312 13.6 83.4512 13.7333 83.3339 13.904C83.2272 14.064 83.0299 14.288 82.7419 14.576C82.4539 14.864 82.1392 15.1147 81.7979 15.328C81.4565 15.5307 81.0032 15.712 80.4379 15.872C79.8832 16.032 79.2859 16.112 78.6459 16.112C77.0885 16.112 75.7872 15.568 74.7419 14.48C73.7072 13.392 73.1899 11.968 73.1899 10.208C73.1899 8.43733 73.7125 7.02933 74.7579 5.984C75.8139 4.93867 77.0832 4.416 78.5659 4.416C80.2192 4.416 81.4192 4.98667 82.1659 6.128L82.1499 4.704C82.1285 4.576 82.1925 4.512 82.3419 4.512H83.2379C83.3765 4.512 83.4459 4.576 83.4459 4.704V8.192C83.4459 8.33067 83.3765 8.4 83.2379 8.4H82.2299C82.1019 8.4 82.0379 8.33067 82.0379 8.192V8.048C82.0379 7.55733 81.7019 7.05067 81.0299 6.528C80.3685 5.99467 79.5419 5.728 78.5499 5.728C77.5579 5.728 76.6619 6.12267 75.8619 6.912C75.0725 7.69067 74.6779 8.8 74.6779 10.24C74.6779 11.6693 75.0779 12.784 75.8779 13.584C76.6779 14.3733 77.6165 14.768 78.6939 14.768C79.8565 14.768 80.7739 14.5067 81.4459 13.984C81.9685 13.5787 82.3525 13.168 82.5979 12.752C82.6832 12.592 82.7845 12.56 82.9019 12.656L83.5739 13.104ZM96.2694 16H92.4134C92.2854 16 92.2214 15.936 92.2214 15.808V14.992C92.2214 14.864 92.2854 14.8 92.4134 14.8H93.6454V10.88H87.6934V14.8H88.9254C89.064 14.8 89.1334 14.864 89.1334 14.992V15.808C89.1334 15.936 89.064 16 88.9254 16H85.0854C84.9467 16 84.8774 15.936 84.8774 15.808V14.992C84.8774 14.864 84.9467 14.8 85.0854 14.8H86.3014V5.712H85.0854C84.9467 5.712 84.8774 5.648 84.8774 5.52V4.704C84.8774 4.576 84.9467 4.512 85.0854 4.512H88.9254C89.064 4.512 89.1334 4.576 89.1334 4.704V5.52C89.1334 5.648 89.064 5.712 88.9254 5.712H87.6934V9.712H93.6454V5.712H92.4134C92.2854 5.712 92.2214 5.648 92.2214 5.52V4.704C92.2214 4.576 92.2854 4.512 92.4134 4.512H96.2694C96.3974 4.512 96.4614 4.576 96.4614 4.704V5.52C96.4614 5.648 96.3974 5.712 96.2694 5.712H95.0374V14.8H96.2694C96.3974 14.8 96.4614 14.864 96.4614 14.992V15.808C96.4614 15.936 96.3974 16 96.2694 16ZM108.944 16H105.328C105.2 16 105.136 15.936 105.136 15.808V14.992C105.136 14.864 105.2 14.8 105.328 14.8H106.448L105.408 12.032H100.944L99.9043 14.8H101.024C101.152 14.8 101.216 14.864 101.216 14.992V15.808C101.216 15.936 101.152 16 101.024 16H97.4243C97.2963 16 97.2323 15.936 97.2323 15.808V14.992C97.2323 14.864 97.2963 14.8 97.4243 14.8H98.4963L101.936 5.712H101.072C100.934 5.712 100.864 5.648 100.864 5.52V4.704C100.864 4.576 100.934 4.512 101.072 4.512H103.248C103.504 4.512 103.696 4.56533 103.824 4.672C103.963 4.77867 104.08 4.95467 104.176 5.2L107.856 14.8H108.944C109.072 14.8 109.136 14.864 109.136 14.992V15.808C109.136 15.936 109.072 16 108.944 16ZM104.976 10.928L103.2 6.176H103.152L101.36 10.928H104.976ZM113.738 16H109.898C109.759 16 109.69 15.936 109.69 15.808V14.992C109.69 14.864 109.759 14.8 109.898 14.8H111.114V5.712H109.898C109.759 5.712 109.69 5.648 109.69 5.52V4.704C109.69 4.576 109.759 4.512 109.898 4.512H113.738C113.877 4.512 113.946 4.576 113.946 4.704V5.52C113.946 5.648 113.877 5.712 113.738 5.712H112.506V14.8H113.738C113.877 14.8 113.946 14.864 113.946 14.992V15.808C113.946 15.936 113.877 16 113.738 16ZM125.361 16H124.497C124.294 16 124.134 15.9627 124.017 15.888C123.899 15.8027 123.787 15.6747 123.681 15.504L119.057 8.272L118.257 6.928H118.225V14.8H119.457C119.595 14.8 119.665 14.864 119.665 14.992V15.808C119.665 15.936 119.595 16 119.457 16H115.617C115.478 16 115.409 15.936 115.409 15.808V14.992C115.409 14.864 115.478 14.8 115.617 14.8H116.833V5.712H115.617C115.478 5.712 115.409 5.648 115.409 5.52V4.704C115.409 4.576 115.478 4.512 115.617 4.512H117.857C118.166 4.512 118.438 4.69333 118.673 5.056L123.233 12.192L124.145 13.744H124.177V5.712H122.945C122.817 5.712 122.753 5.648 122.753 5.52V4.704C122.753 4.576 122.817 4.512 122.945 4.512H126.801C126.929 4.512 126.993 4.576 126.993 4.704V5.52C126.993 5.648 126.929 5.712 126.801 5.712H125.569V15.808C125.569 15.936 125.499 16 125.361 16Z" fill="#00714F"/>
</svg>
